<svg id="Component_2_13" data-name="Component 2 13" xmlns="http://www.w3.org/2000/svg" viewBox="0 0 859.98 262.38">
  <title>MrPurpleLogoPath</title>
  <g id="MrPurple" style="isolation: isolate">
    <g>
      <path d="M397,256.24q4.31-3.41,8.08-6.37,5.07-4,8.36-7t3.28-3.57c0-.72-.64-1.09-1.91-1.09a14.75,14.75,0,0,0-5.76,1.64q-2.1,1-4.39,2.34" transform="translate(0 -83.8)" fill="none" stroke="#1e55b4" stroke-linecap="round" stroke-linejoin="round" stroke-width="0"/>
      <path d="M404.69,242.21a101,101,0,0,0-8.49,5.61q-7.12,5.2-14.66,10.55a151.78,151.78,0,0,1-15.06,9.45q-7.55,4.11-14.12,4.11-5.75,0-5.75-5.75,0-6,5.21-17.27t12.46-24.66q7.26-13.41,15.35-27.81t13.83-27a14,14,0,0,0,1.1-5.75,14.4,14.4,0,0,0-3.7-9.73,11.68,11.68,0,0,0-9.18-4.24,9.16,9.16,0,0,0-2.74.54q-12.06,3-26.85,12.33A328.51,328.51,0,0,0,322.22,184q-15.06,12.06-29.59,25.2t-25.89,24Q255.37,244,248.11,250.83t-8.09,6l71.24-117a31.89,31.89,0,0,0,3.16-7.4,25.72,25.72,0,0,0,.95-6.57,9.82,9.82,0,0,0-1.64-6,5.75,5.75,0,0,0-4.92-2.19q-4.1,0-11.88,4.79a188,188,0,0,0-17.35,12.33q-9.57,7.54-19.95,16.85T240,169.73q-9.3,8.78-16.67,16t-10.94,10.82q-1.09,1.09-5.21,5.34t-9.45,10q-5.34,5.76-11.51,12.06t-11.37,11.51q-5.2,5.2-8.77,8.49t-3.83,3c-.37-.18.55-2.65,2.74-7.4s5-10.69,8.49-17.81,7.26-14.89,11.37-23.29,8-16.35,11.79-23.84,7-14,9.72-19.59,4.39-9.09,4.93-10.55a80.11,80.11,0,0,0,3.15-11.64,70.31,70.31,0,0,0,1.51-14.39q0-14.79-9.6-22.74t-24.14-8q-14.82,0-31.83,7.54a202.81,202.81,0,0,0-32.78,18.36,261.9,261.9,0,0,0-28.67,22.6,196.43,196.43,0,0,0-19.76,20.28q-10.42,12.6-22.49,28.08a342.23,342.23,0,0,0-22.5,32.61A210.62,210.62,0,0,0,6.86,252.61a101.84,101.84,0,0,0-6.86,36,93.09,93.09,0,0,0,1,12.88,47.57,47.57,0,0,0,3.56,12.74,25.28,25.28,0,0,0,7.4,9.73q4.78,3.84,12.47,3.84A30.08,30.08,0,0,0,36,325.36a40.16,40.16,0,0,0,10.82-6.71,39.93,39.93,0,0,0,8.22-9.73,27.19,27.19,0,0,0,3.84-11.78l-3.84-.28A19.75,19.75,0,0,1,51.24,305,36.52,36.52,0,0,1,34.8,317a27.44,27.44,0,0,1-9.32,1.78,12.71,12.71,0,0,1-9.18-3.28,21.3,21.3,0,0,1-5.2-8.09,37.54,37.54,0,0,1-2.2-10.27q-.4-5.49-.41-9.87a85.64,85.64,0,0,1,3.7-24.66,159.19,159.19,0,0,1,9.46-24.11,190.76,190.76,0,0,1,13-22.6q7.26-10.83,14.39-20.14Q60.83,180.15,71,167.67a255.83,255.83,0,0,1,21.09-23,202.91,202.91,0,0,1,24.25-19.87A240.54,240.54,0,0,1,148,106.43a71.14,71.14,0,0,1,15.75-5.89A68.17,68.17,0,0,1,180,98.49q10.95,0,18.63,4.66t7.67,15.61c0,.92,0,1.88-.13,2.88s-.24,2.06-.42,3.15a173.6,173.6,0,0,1-9.86,32.61q-7.12,17.81-17,37.13t-21.51,39.18q-11.64,19.86-23.56,38.49t-23.29,35.08q-11.37,16.44-20.41,28.77a23.39,23.39,0,0,0-2.06,3,6.48,6.48,0,0,0-1,3.29,4.42,4.42,0,0,0,1,2.46,2.77,2.77,0,0,0,2.33,1.37c1.46,0,3.74-1.5,6.85-4.52s6.62-6.85,10.55-11.5,8.08-9.83,12.47-15.49,8.58-11.19,12.6-16.57,7.63-10.19,10.82-14.39,5.62-7.3,7.26-9.31q3.57-4.11,13.84-15.48t24.39-26.31q14.1-14.93,30.55-31.37t32.19-30.83Q267.69,156,281.4,145.48t22.19-13.29q0,2.19-3.42,8.9t-9,16.17q-5.62,9.45-13,21.1T262.77,202.2q-7.95,12.2-15.9,24t-14.66,21.92q-6.71,10.14-11.64,17.67t-7.12,10.83q-3.84,6-3.84,9.86c0,2.92,1.37,4.39,4.11,4.39q3.28,0,9.18-3.57t14.38-12q12.06-12.33,21.79-22.47t18.35-19q8.64-8.91,17.27-16.72t18.08-15.61q9.45-7.81,20.83-15.62t25.89-16.85A126.07,126.07,0,0,1,372,162.06c3.19-1.46,5.7-2.2,7.53-2.2q3.56,0,3.56,3.84,0,3.57-2.88,10t-7.26,14.52q-4.38,8.09-9.72,17.4t-10.42,18.63q-5.07,9.33-9.17,18.22a97.8,97.8,0,0,0-6,16.31,38.44,38.44,0,0,0-1.37,9q0,8.49,4.79,11.78a18.73,18.73,0,0,0,10.83,3.29,27,27,0,0,0,15.07-4.11q1.37-.82,5.75-4t9.86-7.26q5.49-4.11,11.51-8.91l3-2.4" transform="translate(0 -83.8)" fill="none" stroke="#1e55b4" stroke-linecap="round" stroke-linejoin="round" stroke-width="0"/>
      <path d="M397,256.24a41.3,41.3,0,0,1,1.91-4.17q2.47-4.8,5.75-9.86" transform="translate(0 -83.8)" fill="none" stroke="#1e55b4" stroke-linecap="round" stroke-linejoin="round" stroke-width="0"/>
      <path d="M397,256.24a7.44,7.44,0,0,0-.55,2.26,2.78,2.78,0,0,0,1.37,2.33,4.68,4.68,0,0,0,2.74,1,3.72,3.72,0,0,0,2.74-1.09,7.19,7.19,0,0,0,1.78-1.92c.45-.73,1-1.55,1.51-2.47a61.56,61.56,0,0,1,7.94-7.67,30.89,30.89,0,0,1,8.22-4.66,44.13,44.13,0,0,1,9.18-2.33,80.33,80.33,0,0,1,11.1-.68,8.46,8.46,0,0,0,4.66-1,2.79,2.79,0,0,0,1.37-2.33,2.64,2.64,0,0,0-1.79-2.47,16.9,16.9,0,0,0-4.1-1.23,43.81,43.81,0,0,0-4.66-.55c-1.56-.09-2.7-.13-3.43-.13a40.81,40.81,0,0,0-8.9.95,25.69,25.69,0,0,0-7.81,3.16c.18-1.28.31-2.38.41-3.29s.14-1.65.14-2.19c0-2-.83-3-2.47-3q-1.65,0-5.07,4.11a95.7,95.7,0,0,0-6.71,9.18h0" transform="translate(0 -83.8)" fill="none" stroke="#1e55b4" stroke-linecap="round" stroke-linejoin="round" stroke-width="0"/>
      <path d="M444.15,199.87a23.72,23.72,0,0,0,7,3.42,26,26,0,0,0,7.81,1.24c.18,0,.68-.05,1.51-.14l2.46-.27a4.53,4.53,0,0,0,2.06-.69,1.62,1.62,0,0,0,.82-1.37,10.61,10.61,0,0,0-4.52-4.11c-2.1-1.1-4.21-2.15-6.31-3.15a62,62,0,0,1-5.61-3,4.52,4.52,0,0,1-2.47-4q0-2.46,2.74-5.48,6.58-7.94,19.05-15.62A211.35,211.35,0,0,1,497,152.33q15.9-6.71,33.71-12.47T565.81,130q17.27-4.11,32.6-6.44A180.94,180.94,0,0,1,625,121.23q4.11,0,11,.27t14.8,1.37q7.93,1.11,16,3A69.68,69.68,0,0,1,681.3,131a33.4,33.4,0,0,1,10.55,7.81,16,16,0,0,1,4.11,11q0,8.76-8.5,18.08A127.36,127.36,0,0,1,666,186.17a289.89,289.89,0,0,1-28.64,17.4q-15.62,8.35-29.73,14.93T582.8,229.32q-10.69,4.26-13.7,5.35a13.37,13.37,0,0,0-2.74,1.09l-3.29,1.65a16.47,16.47,0,0,0-2.88,1.78q-1.23,1-1.23,1.5c0,.55,1,.83,3,.83q7.95,0,21.65-4.39a278.23,278.23,0,0,0,29.73-11.64,362.55,362.55,0,0,0,32.33-16.72A269.11,269.11,0,0,0,675.27,189a132.13,132.13,0,0,0,21.78-20.68q8.49-10.41,8.5-19.46a23.13,23.13,0,0,0-4.12-13.56,34.26,34.26,0,0,0-10.83-9.86,71.23,71.23,0,0,0-15.08-6.58,139.55,139.55,0,0,0-16.87-4.11,156.13,156.13,0,0,0-16.32-2.05q-7.83-.55-13.3-.55t-10,.27c-3,.19-5.62.46-7.82.82l-44.7,7.13q-6,1.36-18,4.93T522.19,134q-14.4,5.07-29.48,11.37a241,241,0,0,0-27.43,13.43,107.49,107.49,0,0,0-20.16,14.52q-7.81,7.4-7.82,14.8a12,12,0,0,0,1.92,6.57A19,19,0,0,0,444.15,199.87Z" transform="translate(0 -83.8)" fill="none" stroke="#1e55b4" stroke-linecap="round" stroke-linejoin="round" stroke-width="0"/>
      <path d="M472.1,301a5.16,5.16,0,0,0,1,3,3.29,3.29,0,0,0,2.88,1.37q2.46,0,6-3a43.85,43.85,0,0,0,6.58-7,61.47,61.47,0,0,0,5.21-8.09q2.19-4.11,2.19-6.57a2.16,2.16,0,0,0-.82-1.92q.27-2.19,4.11-8.49t9.31-14.94q5.48-8.62,12.06-18.22t12.19-18.08q5.61-8.49,9.87-14.66a91.92,91.92,0,0,0,5.06-7.81q1.92-4.11,2.88-4.52a8,8,0,0,1,2.06-.55,7.18,7.18,0,0,0,3-1.64q1.92-1.5,5.75-7.81a13.35,13.35,0,0,0,1.92-6q0-4.93-4.66-4.93a10.63,10.63,0,0,0-6.3,2.46l-62.74,95.63a76.09,76.09,0,0,1-4.66,7.26c-2,2.84-4,5.8-5.89,8.91a98.44,98.44,0,0,0-4.93,8.9A16.83,16.83,0,0,0,472.1,301Z" transform="translate(0 -83.8)" fill="none" stroke="#1e55b4" stroke-linecap="round" stroke-linejoin="round" stroke-width="0"/>
      <path d="M657.85,253.76c.55-.21,1.1-.46,1.66-.74a14.13,14.13,0,0,0,3.57-1.91q2.46-1.65,5.06-3.7a40.33,40.33,0,0,0,4.53-4.11c1.27-1.37,1.91-2.42,1.91-3.15q0-1.92-2.46-1.92a7.79,7.79,0,0,0-3.84,1.09c-1.13.61-2.17,1.22-3.13,1.83" transform="translate(0 -83.8)" fill="none" stroke="#1e55b4" stroke-linecap="round" stroke-linejoin="round" stroke-width="0"/>
      <path d="M665.15,241.15c-1.07.67-2,1.34-2.9,2q-2.46,1.92-8.22,3.29h-.82c-2,0-3-.91-3-2.74a4.18,4.18,0,0,1,.55-1.65,21.33,21.33,0,0,1,4.65-3.56,9.29,9.29,0,0,0,3.84-4.11,5.3,5.3,0,0,0,1.1-2.46,3.15,3.15,0,0,0-1.37-2.47,4.18,4.18,0,0,0-2.47-1.1c-.92,0-2.38.65-4.38,1.92s-3.39,2.19-4.11,2.74c-.92.73-2.74,2-5.48,3.7s-5.72,3.47-8.91,5.21-6.21,3.24-9,4.52-4.89,1.92-6.17,1.92a4,4,0,0,1-2.46-.83,2.59,2.59,0,0,1-1.1-2.19,5,5,0,0,1,2.06-3.7,29.74,29.74,0,0,0,3.42-3.42l2.74-3.29a5.47,5.47,0,0,0,1.37-3.56,4.29,4.29,0,0,0-3.83-3.84c-1.47,0-3.29.87-5.48,2.6s-3.93,3.16-5.21,4.25a22.58,22.58,0,0,0-3,11,14.08,14.08,0,0,0,2.6,8.38,8.66,8.66,0,0,0,7.53,3.68,14.73,14.73,0,0,0,6.31-1.41,53.9,53.9,0,0,0,6.57-3.38c2.19-1.32,4.29-2.63,6.3-4,.73-.37,1.33-.66,1.78-.84a3.91,3.91,0,0,1,1.51-.29c.91,0,2,.65,3.29,1.92q4.38,5.49,9.32,5.48a15.34,15.34,0,0,0,5.73-1.18" transform="translate(0 -83.8)" fill="none" stroke="#1e55b4" stroke-linecap="round" stroke-linejoin="round" stroke-width="0"/>
      <path d="M657.85,253.76c.25-.53.53-1.09.84-1.69a110.77,110.77,0,0,1,5.76-9.87c.23-.36.46-.7.7-1" transform="translate(0 -83.8)" fill="none" stroke="#1e55b4" stroke-linecap="round" stroke-linejoin="round" stroke-width="0"/>
      <path d="M698.49,233.45a42.17,42.17,0,0,1,4.45.53c.53.09,1,.21,1.51.33" transform="translate(0 -83.8)" fill="none" stroke="#1e55b4" stroke-linecap="round" stroke-linejoin="round" stroke-width="0"/>
      <path d="M708.71,238.44a3.07,3.07,0,0,1-1.25,1.57c-.91.64-2.46,1-4.66,1-2.59,0-5,.1-7.17.27" transform="translate(0 -83.8)" fill="none" stroke="#1e55b4" stroke-linecap="round" stroke-linejoin="round" stroke-width="0"/>
      <path d="M708.71,238.44a2.69,2.69,0,0,0,.12-.76,2.63,2.63,0,0,0-1.78-2.47,16.16,16.16,0,0,0-2.6-.9" transform="translate(0 -83.8)" fill="none" stroke="#1e55b4" stroke-linecap="round" stroke-linejoin="round" stroke-width="0"/>
      <path d="M665.15,241.15a90.74,90.74,0,0,1,6-8.13q3.42-4.11,5.07-4.11c1.64,0,2.46,1,2.46,3,0,.54,0,1.28-.13,2.19s-.24,2-.42,3.29a25.9,25.9,0,0,1,7.81-3.16,40.9,40.9,0,0,1,8.91-.95c.73,0,1.87,0,3.42.13l.21,0" transform="translate(0 -83.8)" fill="none" stroke="#1e55b4" stroke-linecap="round" stroke-linejoin="round" stroke-width="0"/>
      <path d="M657.85,253.76a13.92,13.92,0,0,0-1.63,4.74,2.77,2.77,0,0,0,1.38,2.33,4.65,4.65,0,0,0,2.73,1,3.73,3.73,0,0,0,2.75-1.09,7.36,7.36,0,0,0,1.78-1.92c.45-.73.95-1.55,1.5-2.47a61.58,61.58,0,0,1,7.95-7.67,30.89,30.89,0,0,1,8.22-4.66,44.13,44.13,0,0,1,9.18-2.33c1.22-.17,2.55-.3,3.92-.41" transform="translate(0 -83.8)" fill="none" stroke="#1e55b4" stroke-linecap="round" stroke-linejoin="round" stroke-width="0"/>
      <path d="M695.63,241.24c.25-1,.49-1.94.74-2.87a16.77,16.77,0,0,1,1.64-4.25,4.43,4.43,0,0,1,.48-.67" transform="translate(0 -83.8)" fill="none" stroke="#1e55b4" stroke-linecap="round" stroke-linejoin="round" stroke-width="0"/>
      <path d="M695.63,241.24c-.21.85-.42,1.71-.63,2.6a23.13,23.13,0,0,1-1.79,5.07,53,53,0,0,1-5.2,9.59,57.44,57.44,0,0,1-6.85,8.22,29.81,29.81,0,0,0-3,4.66q-2.19,3.84-4.52,8.36t-4.24,8.36c-1.28,2.55-1.92,4.11-1.92,4.65a4.42,4.42,0,0,0,1.09,2.74,3.15,3.15,0,0,0,2.47,1.37,2.83,2.83,0,0,0,1.51-.41,6.07,6.07,0,0,0,1.23-1,28.83,28.83,0,0,0,3.56-4.52q1.92-2.88,4-6.16t3.84-6.44L688,273.3a108.62,108.62,0,0,1,15.89-20.69A68.37,68.37,0,0,1,725.55,238a16.44,16.44,0,0,0,1.91-1.09,3.35,3.35,0,0,1,1.92-.55,3.17,3.17,0,0,1,2.06.81,2.66,2.66,0,0,1,1,2.15q0,1.89-2.61,4.18a34.08,34.08,0,0,1-6,4.17,43.5,43.5,0,0,1-7,3.1,18.43,18.43,0,0,1-5.21,1.21,10.79,10.79,0,0,0-2.88.42q-1.5.42-1.5,2.4a5.22,5.22,0,0,0,2.33,4.67,8.56,8.56,0,0,0,4.79,1.55,10.43,10.43,0,0,0,5.21-1.1c1.82-.91,3.56-1.82,5.2-2.74l4.94-2.74q7.89-6,20.8-9" transform="translate(0 -83.8)" fill="none" stroke="#1e55b4" stroke-linecap="round" stroke-linejoin="round" stroke-width="0"/>
      <path d="M698.49,233.45a2.72,2.72,0,0,1,2.12-1,7.35,7.35,0,0,1,3.84,1.84" transform="translate(0 -83.8)" fill="none" stroke="#1e55b4" stroke-linecap="round" stroke-linejoin="round" stroke-width="0"/>
      <path d="M708.71,238.44a2.53,2.53,0,0,1-1.52-1.31,20,20,0,0,0-2.74-2.82" transform="translate(0 -83.8)" fill="none" stroke="#1e55b4" stroke-linecap="round" stroke-linejoin="round" stroke-width="0"/>
      <path d="M708.71,238.44a1.76,1.76,0,0,0,.4.06,2.34,2.34,0,0,0,1.5-.55,13.58,13.58,0,0,0,1.24-1.09q4.11-2.19,8.22-4.52a41.45,41.45,0,0,1,8.76-3.7,15.17,15.17,0,0,1,3.57-.55c3.46,0,5.66,1.92,6.57,5.75a6.72,6.72,0,0,0,3,4.53,10.44,10.44,0,0,0,5.2,1.23,26.11,26.11,0,0,0,3.84-.28,14.24,14.24,0,0,0,3.29-.82,3.17,3.17,0,0,1,.37-.15" transform="translate(0 -83.8)" fill="none" stroke="#1e55b4" stroke-linecap="round" stroke-linejoin="round" stroke-width="0"/>
      <path d="M750.46,245.36c1.25-.3,2.53-.57,3.86-.83a9,9,0,0,0,4.52-1.92,3.81,3.81,0,0,0,1.5-2.74c0-1.27-1-1.92-3-1.92a7.52,7.52,0,0,0-2.64.4" transform="translate(0 -83.8)" fill="none" stroke="#1e55b4" stroke-linecap="round" stroke-linejoin="round" stroke-width="0"/>
      <path d="M780.83,240.05a7,7,0,0,1,4.17-1.82,1.46,1.46,0,0,1,1.65,1.64c0,1.47-.83,2.84-2.47,4.11q-1.65,1.38-4.11,3.7c-1.64,1.56-3.2,3.15-4.66,4.8l-1.33,1.46" transform="translate(0 -83.8)" fill="none" stroke="#1e55b4" stroke-linecap="round" stroke-linejoin="round" stroke-width="0"/>
      <path d="M750.46,245.36a75,75,0,0,1,4.23-7" transform="translate(0 -83.8)" fill="none" stroke="#1e55b4" stroke-linecap="round" stroke-linejoin="round" stroke-width="0"/>
      <path d="M780.83,240.05c-.25.2-.5.41-.76.64q-8.49,7.68-15.34,13.84t-9.05,6.17a1.94,1.94,0,0,1-2.19-2.19,12.51,12.51,0,0,1,1.1-4.36,58.82,58.82,0,0,1,2.6-5.6,46.59,46.59,0,0,1,3.15-5.19,27.37,27.37,0,0,1,2.47-3.14l41.65-56a2.37,2.37,0,0,0-1.1-1.91,3.62,3.62,0,0,0-2.19-.82q-1.38,0-4.93,3.56T788,194.25q-4.66,5.63-9.87,12.47t-9.86,13q-4.66,6.17-8.22,11.1t-4.93,6.85c-.16.22-.3.45-.45.67" transform="translate(0 -83.8)" fill="none" stroke="#1e55b4" stroke-linecap="round" stroke-linejoin="round" stroke-width="0"/>
      <path d="M750.46,245.36c-.94,1.76-1.81,3.53-2.58,5.34Q745,257.4,745,262.07a8.84,8.84,0,0,0,1.5,5.34q1.51,2.05,5.35,2.33c1.82.18,4.11-.48,6.85-2a44.36,44.36,0,0,0,9.59-7.89c.55-.54,1.5-1.5,2.87-2.87,1-.95,1.93-2,2.92-3.06" transform="translate(0 -83.8)" fill="none" stroke="#1e55b4" stroke-linecap="round" stroke-linejoin="round" stroke-width="0"/>
      <path d="M774.08,253.94c0,.31,0,.61,0,.92a9.17,9.17,0,0,0,2.05,6.06,16,16,0,0,0,4.94,4,23.14,23.14,0,0,0,6.3,2.2,32.58,32.58,0,0,0,6.44.69q9.3,0,18.08-6.3,5.21-3.84,10.28-7.13t10.54-7.12a18.7,18.7,0,0,0,4.94-4,5.36,5.36,0,0,0,1.37-2.88c0-1.28-1.1-1.92-3.29-1.92a9.63,9.63,0,0,0-5.48,1.65q-7.12,4.92-13.84,9.72A73.72,73.72,0,0,1,801.71,258c-2.92,1.82-5.48,2.74-7.67,2.74-1.64,0-2.46-.46-2.46-1.39s.63-1.93,1.91-3a20.79,20.79,0,0,1,3.15-2.49q2.05-1.38,4.25-2.76a47.59,47.59,0,0,0,4.11-2.9,35,35,0,0,0,3-2.63,8.93,8.93,0,0,0,2.46-6.08,15.14,15.14,0,0,0-2.6-8,7.94,7.94,0,0,0-7-4.14A17,17,0,0,0,792.4,230a43.77,43.77,0,0,0-8.77,6.9c-1,1-1.92,2-2.8,3.12" transform="translate(0 -83.8)" fill="none" stroke="#1e55b4" stroke-linecap="round" stroke-linejoin="round" stroke-width="0"/>
      <path d="M786.92,247.27c0,1.28.54,1.92,1.64,1.92a9.45,9.45,0,0,0,3.56-1,18.78,18.78,0,0,0,4.11-2.47,18.29,18.29,0,0,0,3.29-3.29,5.67,5.67,0,0,0,1.37-3.42c0-1.82-.82-2.74-2.47-2.74a6.39,6.39,0,0,0-3.28,1.23,22.28,22.28,0,0,0-3.7,3,29,29,0,0,0-3.15,3.7A5.87,5.87,0,0,0,786.92,247.27Z" transform="translate(0 -83.8)" fill="none" stroke="#1e55b4" stroke-linecap="round" stroke-linejoin="round" stroke-width="0"/>
      <path d="M780.83,240.05a41.48,41.48,0,0,0-4.05,5.84,19.4,19.4,0,0,0-2.7,8.05" transform="translate(0 -83.8)" fill="none" stroke="#1e55b4" stroke-linecap="round" stroke-linejoin="round" stroke-width="0"/>
    </g>
  </g>
  <g id="MrPurple-2" style="isolation: isolate">
    <g>
      <path d="M418,252.24q4.31-3.41,8.08-6.37,5.07-4,8.36-7t3.28-3.57c0-.72-.64-1.09-1.91-1.09a14.75,14.75,0,0,0-5.76,1.64q-2.1,1-4.39,2.34" transform="translate(0 -83.8)" fill="none" stroke="#be7dff" stroke-linecap="round" stroke-linejoin="round" stroke-width="0"/>
      <path d="M425.69,238.21a101,101,0,0,0-8.49,5.61q-7.12,5.2-14.66,10.55a151.78,151.78,0,0,1-15.06,9.45q-7.55,4.11-14.12,4.11-5.75,0-5.75-5.75,0-6,5.21-17.27t12.46-24.66q7.26-13.41,15.35-27.81t13.83-27a14,14,0,0,0,1.1-5.75,14.4,14.4,0,0,0-3.7-9.73,11.68,11.68,0,0,0-9.18-4.24,9.16,9.16,0,0,0-2.74.54q-12.06,3-26.85,12.33A328.51,328.51,0,0,0,343.22,180q-15.06,12.06-29.59,25.2t-25.89,24Q276.37,240,269.11,246.83t-8.09,6l71.24-117a31.89,31.89,0,0,0,3.16-7.4,25.72,25.72,0,0,0,.95-6.57,9.82,9.82,0,0,0-1.64-6,5.75,5.75,0,0,0-4.92-2.19q-4.1,0-11.88,4.79a188,188,0,0,0-17.35,12.33q-9.57,7.54-19.95,16.85T261,165.73q-9.3,8.78-16.67,16t-10.94,10.82q-1.09,1.09-5.21,5.34t-9.45,10q-5.34,5.76-11.51,12.06t-11.37,11.51q-5.2,5.2-8.77,8.49t-3.83,3c-.37-.18.55-2.65,2.74-7.4s5-10.69,8.49-17.81,7.26-14.89,11.37-23.29,8-16.35,11.79-23.84,7-14,9.72-19.59,4.39-9.09,4.93-10.55a80.11,80.11,0,0,0,3.15-11.64,70.31,70.31,0,0,0,1.51-14.39q0-14.79-9.6-22.74t-24.14-8q-14.82,0-31.83,7.54a202.81,202.81,0,0,0-32.78,18.36,261.9,261.9,0,0,0-28.67,22.6,196.43,196.43,0,0,0-19.76,20.28q-10.42,12.6-22.49,28.08a342.23,342.23,0,0,0-22.5,32.61,210.62,210.62,0,0,0-17.28,35.34,101.84,101.84,0,0,0-6.86,36,93.09,93.09,0,0,0,1,12.88,47.57,47.57,0,0,0,3.56,12.74,25.28,25.28,0,0,0,7.4,9.73q4.78,3.84,12.47,3.84A30.08,30.08,0,0,0,57,321.36a40.69,40.69,0,0,0,19-16.44,27.19,27.19,0,0,0,3.84-11.78l-3.84-.28A19.75,19.75,0,0,1,72.24,301,36.52,36.52,0,0,1,55.8,313a27.44,27.44,0,0,1-9.32,1.78,12.71,12.71,0,0,1-9.18-3.28,21.3,21.3,0,0,1-5.2-8.09,37.54,37.54,0,0,1-2.2-10.27q-.41-5.49-.41-9.87a85.64,85.64,0,0,1,3.7-24.66,159.19,159.19,0,0,1,9.46-24.11,190.76,190.76,0,0,1,13-22.6q7.26-10.83,14.39-20.14Q81.83,176.15,92,163.67a255.83,255.83,0,0,1,21.09-23,202.91,202.91,0,0,1,24.25-19.87A240.54,240.54,0,0,1,169,102.43a71.14,71.14,0,0,1,15.75-5.89A68.17,68.17,0,0,1,201,94.49q10.95,0,18.63,4.66t7.67,15.61c0,.92,0,1.88-.13,2.88s-.24,2.06-.42,3.15a173.6,173.6,0,0,1-9.86,32.61q-7.12,17.81-17,37.13t-21.51,39.18q-11.64,19.86-23.56,38.49t-23.29,35.08q-11.37,16.44-20.41,28.77a23.39,23.39,0,0,0-2.06,3,6.48,6.48,0,0,0-1,3.29,4.42,4.42,0,0,0,1,2.46,2.77,2.77,0,0,0,2.33,1.37c1.46,0,3.74-1.5,6.85-4.52s6.62-6.85,10.55-11.5,8.08-9.83,12.47-15.49,8.58-11.19,12.6-16.57,7.63-10.19,10.82-14.39,5.62-7.3,7.26-9.31q3.57-4.11,13.84-15.48t24.39-26.31q14.1-14.93,30.55-31.37t32.19-30.83Q288.69,152,302.4,141.48t22.19-13.29q0,2.19-3.42,8.9t-9,16.17q-5.62,9.45-13,21.1T283.77,198.2q-7.95,12.2-15.9,24t-14.66,21.92q-6.71,10.14-11.64,17.67t-7.12,10.83q-3.84,6-3.84,9.86c0,2.92,1.37,4.39,4.11,4.39q3.28,0,9.18-3.57t14.38-12q12.06-12.33,21.79-22.47t18.35-19q8.64-8.91,17.27-16.72t18.08-15.61q9.45-7.81,20.83-15.62t25.89-16.85A126.07,126.07,0,0,1,393,158.06c3.19-1.46,5.7-2.2,7.53-2.2q3.56,0,3.56,3.84,0,3.57-2.88,10t-7.26,14.52q-4.38,8.09-9.72,17.4t-10.42,18.63q-5.07,9.33-9.17,18.22a97.8,97.8,0,0,0-6,16.31,38.44,38.44,0,0,0-1.37,9q0,8.49,4.79,11.78a18.73,18.73,0,0,0,10.83,3.29,27,27,0,0,0,15.07-4.11q1.37-.82,5.75-4t9.86-7.26q5.49-4.11,11.51-8.91l3-2.4" transform="translate(0 -83.8)" fill="none" stroke="#be7dff" stroke-linecap="round" stroke-linejoin="round" stroke-width="0"/>
      <path d="M418,252.24a41.3,41.3,0,0,1,1.91-4.17q2.47-4.8,5.75-9.86" transform="translate(0 -83.8)" fill="none" stroke="#be7dff" stroke-linecap="round" stroke-linejoin="round" stroke-width="0"/>
      <path d="M418,252.24a7.44,7.44,0,0,0-.55,2.26,2.78,2.78,0,0,0,1.37,2.33,4.68,4.68,0,0,0,2.74,1,3.72,3.72,0,0,0,2.74-1.09,7.19,7.19,0,0,0,1.78-1.92c.45-.73,1-1.55,1.51-2.47a61.56,61.56,0,0,1,7.94-7.67,30.89,30.89,0,0,1,8.22-4.66,44.13,44.13,0,0,1,9.18-2.33,80.33,80.33,0,0,1,11.1-.68,8.46,8.46,0,0,0,4.66-1,2.79,2.79,0,0,0,1.37-2.33,2.64,2.64,0,0,0-1.79-2.47,16.9,16.9,0,0,0-4.1-1.23,43.81,43.81,0,0,0-4.66-.55c-1.56-.09-2.7-.13-3.43-.13a40.81,40.81,0,0,0-8.9.95,25.69,25.69,0,0,0-7.81,3.16c.18-1.28.31-2.38.41-3.29s.14-1.65.14-2.19c0-2-.83-3-2.47-3q-1.65,0-5.07,4.11a95.7,95.7,0,0,0-6.71,9.18h0" transform="translate(0 -83.8)" fill="none" stroke="#be7dff" stroke-linecap="round" stroke-linejoin="round" stroke-width="0"/>
      <path d="M465.15,195.87a23.72,23.72,0,0,0,7,3.42,26,26,0,0,0,7.81,1.24c.18,0,.68-.05,1.51-.14l2.46-.27a4.53,4.53,0,0,0,2.06-.69,1.62,1.62,0,0,0,.82-1.37,10.61,10.61,0,0,0-4.52-4.11c-2.1-1.1-4.21-2.15-6.31-3.15a62,62,0,0,1-5.61-3,4.52,4.52,0,0,1-2.47-4q0-2.46,2.74-5.48,6.58-7.94,19.05-15.62A211.35,211.35,0,0,1,518,148.33q15.9-6.71,33.71-12.47T586.81,126q17.27-4.11,32.6-6.44A180.94,180.94,0,0,1,646,117.23q4.11,0,11,.27t14.8,1.37q7.93,1.11,16,3A69.68,69.68,0,0,1,702.3,127a33.4,33.4,0,0,1,10.55,7.81,16,16,0,0,1,4.11,11q0,8.76-8.5,18.08A127.36,127.36,0,0,1,687,182.17a289.89,289.89,0,0,1-28.64,17.4q-15.62,8.35-29.73,14.93T603.8,225.32q-10.69,4.26-13.7,5.35a13.37,13.37,0,0,0-2.74,1.09l-3.29,1.65a16.47,16.47,0,0,0-2.88,1.78q-1.23,1-1.23,1.5c0,.55,1,.83,3,.83q7.95,0,21.65-4.39a278.23,278.23,0,0,0,29.73-11.64,362.55,362.55,0,0,0,32.33-16.72A269.11,269.11,0,0,0,696.27,185a132.13,132.13,0,0,0,21.78-20.68q8.49-10.41,8.5-19.46a23.13,23.13,0,0,0-4.12-13.56,34.26,34.26,0,0,0-10.83-9.86,71.23,71.23,0,0,0-15.08-6.58,139.55,139.55,0,0,0-16.87-4.11,156.13,156.13,0,0,0-16.32-2.05q-7.83-.55-13.3-.55t-10,.27c-3,.19-5.62.46-7.82.82l-44.7,7.13q-6,1.36-18,4.93T543.19,130q-14.4,5.07-29.48,11.37a241,241,0,0,0-27.43,13.43,107.49,107.49,0,0,0-20.16,14.52q-7.81,7.4-7.82,14.8a12,12,0,0,0,1.92,6.57A19,19,0,0,0,465.15,195.87Z" transform="translate(0 -83.8)" fill="none" stroke="#be7dff" stroke-linecap="round" stroke-linejoin="round" stroke-width="0"/>
      <path d="M493.1,297a5.16,5.16,0,0,0,1,3,3.29,3.29,0,0,0,2.88,1.37q2.46,0,6-3a43.85,43.85,0,0,0,6.58-7,61.47,61.47,0,0,0,5.21-8.09q2.19-4.11,2.19-6.57a2.16,2.16,0,0,0-.82-1.92q.27-2.19,4.11-8.49t9.31-14.94q5.48-8.62,12.06-18.22t12.19-18.08q5.61-8.49,9.87-14.66a91.92,91.92,0,0,0,5.06-7.81q1.92-4.11,2.88-4.52a8,8,0,0,1,2.06-.55,7.18,7.18,0,0,0,3-1.64q1.92-1.5,5.75-7.81a13.35,13.35,0,0,0,1.92-6q0-4.93-4.66-4.93a10.63,10.63,0,0,0-6.3,2.46l-62.74,95.63a76.09,76.09,0,0,1-4.66,7.26c-2,2.84-4,5.8-5.89,8.91a98.44,98.44,0,0,0-4.93,8.9A16.83,16.83,0,0,0,493.1,297Z" transform="translate(0 -83.8)" fill="none" stroke="#be7dff" stroke-linecap="round" stroke-linejoin="round" stroke-width="0"/>
      <path d="M678.85,249.76c.55-.21,1.1-.46,1.66-.74a14.13,14.13,0,0,0,3.57-1.91q2.46-1.65,5.06-3.7a40.33,40.33,0,0,0,4.53-4.11c1.27-1.37,1.91-2.42,1.91-3.15q0-1.92-2.46-1.92a7.79,7.79,0,0,0-3.84,1.09c-1.13.61-2.17,1.22-3.13,1.83" transform="translate(0 -83.8)" fill="none" stroke="#be7dff" stroke-linecap="round" stroke-linejoin="round" stroke-width="0"/>
      <path d="M686.15,237.15c-1.07.67-2,1.34-2.9,2q-2.46,1.92-8.22,3.29h-.82c-2,0-3-.91-3-2.74a4.18,4.18,0,0,1,.55-1.65,21.33,21.33,0,0,1,4.65-3.56,9.29,9.29,0,0,0,3.84-4.11,5.3,5.3,0,0,0,1.1-2.46,3.15,3.15,0,0,0-1.37-2.47,4.18,4.18,0,0,0-2.47-1.1c-.92,0-2.38.65-4.38,1.92s-3.39,2.19-4.11,2.74c-.92.73-2.74,2-5.48,3.7s-5.72,3.47-8.91,5.21-6.21,3.24-9,4.52-4.89,1.92-6.17,1.92a4,4,0,0,1-2.46-.83,2.59,2.59,0,0,1-1.1-2.19,5,5,0,0,1,2.06-3.7,29.74,29.74,0,0,0,3.42-3.42l2.74-3.29a5.47,5.47,0,0,0,1.37-3.56,4.29,4.29,0,0,0-3.83-3.84c-1.47,0-3.29.87-5.48,2.6s-3.93,3.16-5.21,4.25a22.58,22.58,0,0,0-3,11,14.08,14.08,0,0,0,2.6,8.38,8.66,8.66,0,0,0,7.53,3.68,14.73,14.73,0,0,0,6.31-1.41,53.9,53.9,0,0,0,6.57-3.38c2.19-1.32,4.29-2.63,6.3-4,.73-.37,1.33-.66,1.78-.84a3.91,3.91,0,0,1,1.51-.29c.91,0,2,.65,3.29,1.92q4.38,5.49,9.32,5.48a15.34,15.34,0,0,0,5.73-1.18" transform="translate(0 -83.8)" fill="none" stroke="#be7dff" stroke-linecap="round" stroke-linejoin="round" stroke-width="0"/>
      <path d="M729.71,234.44a3.07,3.07,0,0,1-1.25,1.57c-.91.64-2.46,1-4.66,1-2.59,0-5,.1-7.17.27" transform="translate(0 -83.8)" fill="none" stroke="#be7dff" stroke-linecap="round" stroke-linejoin="round" stroke-width="0"/>
      <path d="M729.71,234.44a2.69,2.69,0,0,0,.12-.76,2.63,2.63,0,0,0-1.78-2.47,16.16,16.16,0,0,0-2.6-.9" transform="translate(0 -83.8)" fill="none" stroke="#be7dff" stroke-linecap="round" stroke-linejoin="round" stroke-width="0"/>
      <path d="M719.49,229.45a42.17,42.17,0,0,1,4.45.53c.53.09,1,.21,1.51.33" transform="translate(0 -83.8)" fill="none" stroke="#be7dff" stroke-linecap="round" stroke-linejoin="round" stroke-width="0"/>
      <path d="M686.15,237.15a90.74,90.74,0,0,1,6-8.13q3.42-4.11,5.07-4.11c1.64,0,2.46,1,2.46,3,0,.54,0,1.28-.13,2.19s-.24,2-.42,3.29a25.9,25.9,0,0,1,7.81-3.16,40.9,40.9,0,0,1,8.91-.95c.73,0,1.87,0,3.42.13l.21,0" transform="translate(0 -83.8)" fill="none" stroke="#be7dff" stroke-linecap="round" stroke-linejoin="round" stroke-width="0"/>
      <path d="M678.85,249.76a13.92,13.92,0,0,0-1.63,4.74,2.77,2.77,0,0,0,1.38,2.33,4.65,4.65,0,0,0,2.73,1,3.73,3.73,0,0,0,2.75-1.09,7.36,7.36,0,0,0,1.78-1.92c.45-.73.95-1.55,1.5-2.47a61.58,61.58,0,0,1,7.95-7.67,30.89,30.89,0,0,1,8.22-4.66,44.13,44.13,0,0,1,9.18-2.33c1.22-.17,2.55-.3,3.92-.41" transform="translate(0 -83.8)" fill="none" stroke="#be7dff" stroke-linecap="round" stroke-linejoin="round" stroke-width="0"/>
      <path d="M678.85,249.76c.25-.53.53-1.09.84-1.69a110.77,110.77,0,0,1,5.76-9.87c.23-.36.46-.7.7-1" transform="translate(0 -83.8)" fill="none" stroke="#be7dff" stroke-linecap="round" stroke-linejoin="round" stroke-width="0"/>
      <path d="M729.71,234.44a2.53,2.53,0,0,1-1.52-1.31,20,20,0,0,0-2.74-2.82" transform="translate(0 -83.8)" fill="none" stroke="#be7dff" stroke-linecap="round" stroke-linejoin="round" stroke-width="0"/>
      <path d="M716.63,237.24c.25-1,.49-1.94.74-2.87a16.77,16.77,0,0,1,1.64-4.25,4.43,4.43,0,0,1,.48-.67" transform="translate(0 -83.8)" fill="none" stroke="#be7dff" stroke-linecap="round" stroke-linejoin="round" stroke-width="0"/>
      <path d="M729.71,234.44a1.76,1.76,0,0,0,.4.06,2.34,2.34,0,0,0,1.5-.55,13.58,13.58,0,0,0,1.24-1.09q4.11-2.19,8.22-4.52a41.45,41.45,0,0,1,8.76-3.7,15.17,15.17,0,0,1,3.57-.55c3.46,0,5.66,1.92,6.57,5.75a6.72,6.72,0,0,0,3,4.53,10.44,10.44,0,0,0,5.2,1.23,26.11,26.11,0,0,0,3.84-.28,14.24,14.24,0,0,0,3.29-.82,3.17,3.17,0,0,1,.37-.15" transform="translate(0 -83.8)" fill="none" stroke="#be7dff" stroke-linecap="round" stroke-linejoin="round" stroke-width="0"/>
      <path d="M719.49,229.45a2.72,2.72,0,0,1,2.12-1,7.35,7.35,0,0,1,3.84,1.84" transform="translate(0 -83.8)" fill="none" stroke="#be7dff" stroke-linecap="round" stroke-linejoin="round" stroke-width="0"/>
      <path d="M716.63,237.24c-.21.85-.42,1.71-.63,2.6a23.13,23.13,0,0,1-1.79,5.07,53,53,0,0,1-5.2,9.59,57.44,57.44,0,0,1-6.85,8.22,29.81,29.81,0,0,0-3,4.66q-2.19,3.84-4.52,8.36t-4.24,8.36c-1.28,2.55-1.92,4.11-1.92,4.65a4.42,4.42,0,0,0,1.09,2.74,3.15,3.15,0,0,0,2.47,1.37,2.83,2.83,0,0,0,1.51-.41,6.07,6.07,0,0,0,1.23-1,28.83,28.83,0,0,0,3.56-4.52q1.92-2.88,4-6.16t3.84-6.44L709,269.3a108.62,108.62,0,0,1,15.89-20.69A68.37,68.37,0,0,1,746.55,234a16.44,16.44,0,0,0,1.91-1.09,3.35,3.35,0,0,1,1.92-.55,3.17,3.17,0,0,1,2.06.81,2.66,2.66,0,0,1,1,2.15q0,1.89-2.61,4.18a34.08,34.08,0,0,1-6,4.17,43.5,43.5,0,0,1-7,3.1,18.43,18.43,0,0,1-5.21,1.21,10.79,10.79,0,0,0-2.88.42q-1.5.42-1.5,2.4a5.22,5.22,0,0,0,2.33,4.67,8.56,8.56,0,0,0,4.79,1.55,10.43,10.43,0,0,0,5.21-1.1c1.82-.91,3.56-1.82,5.2-2.74l4.94-2.74q7.89-6,20.8-9" transform="translate(0 -83.8)" fill="none" stroke="#be7dff" stroke-linecap="round" stroke-linejoin="round" stroke-width="0"/>
      <path d="M771.46,241.36c1.25-.3,2.53-.57,3.86-.83a9,9,0,0,0,4.52-1.92,3.81,3.81,0,0,0,1.5-2.74c0-1.27-1-1.92-3-1.92a7.52,7.52,0,0,0-2.64.4" transform="translate(0 -83.8)" fill="none" stroke="#be7dff" stroke-linecap="round" stroke-linejoin="round" stroke-width="0"/>
      <path d="M801.83,236.05a7,7,0,0,1,4.17-1.82,1.46,1.46,0,0,1,1.65,1.64c0,1.47-.83,2.84-2.47,4.11q-1.65,1.38-4.11,3.7c-1.64,1.56-3.2,3.15-4.66,4.8l-1.33,1.46" transform="translate(0 -83.8)" fill="none" stroke="#be7dff" stroke-linecap="round" stroke-linejoin="round" stroke-width="0"/>
      <path d="M771.46,241.36a75,75,0,0,1,4.23-7" transform="translate(0 -83.8)" fill="none" stroke="#be7dff" stroke-linecap="round" stroke-linejoin="round" stroke-width="0"/>
      <path d="M801.83,236.05c-.25.2-.5.41-.76.64q-8.49,7.68-15.34,13.84t-9.05,6.17a1.94,1.94,0,0,1-2.19-2.19,12.51,12.51,0,0,1,1.1-4.36,58.82,58.82,0,0,1,2.6-5.6,46.59,46.59,0,0,1,3.15-5.19,27.37,27.37,0,0,1,2.47-3.14l41.65-56a2.37,2.37,0,0,0-1.1-1.91,3.62,3.62,0,0,0-2.19-.82q-1.38,0-4.93,3.56T809,190.25q-4.66,5.63-9.87,12.47t-9.86,13q-4.66,6.17-8.22,11.1t-4.93,6.85c-.16.22-.3.45-.45.67" transform="translate(0 -83.8)" fill="none" stroke="#be7dff" stroke-linecap="round" stroke-linejoin="round" stroke-width="0"/>
      <path d="M771.46,241.36c-.94,1.76-1.81,3.53-2.58,5.34Q766,253.4,766,258.07a8.84,8.84,0,0,0,1.5,5.34q1.51,2.05,5.35,2.33c1.82.18,4.11-.48,6.85-2a44.36,44.36,0,0,0,9.59-7.89c.55-.54,1.5-1.5,2.87-2.87,1-.95,1.93-2,2.92-3.06" transform="translate(0 -83.8)" fill="none" stroke="#be7dff" stroke-linecap="round" stroke-linejoin="round" stroke-width="0"/>
      <path d="M801.83,236.05a41.48,41.48,0,0,0-4.05,5.84,19.4,19.4,0,0,0-2.7,8.05" transform="translate(0 -83.8)" fill="none" stroke="#be7dff" stroke-linecap="round" stroke-linejoin="round" stroke-width="0"/>
      <path d="M795.08,249.94c0,.31,0,.61,0,.92a9.17,9.17,0,0,0,2.05,6.06,16,16,0,0,0,4.94,4,23.14,23.14,0,0,0,6.3,2.2,32.58,32.58,0,0,0,6.44.69q9.3,0,18.08-6.3,5.21-3.84,10.28-7.13t10.54-7.12a18.7,18.7,0,0,0,4.94-4,5.36,5.36,0,0,0,1.37-2.88c0-1.28-1.1-1.92-3.29-1.92a9.63,9.63,0,0,0-5.48,1.65q-7.12,4.92-13.84,9.72A73.72,73.72,0,0,1,822.71,254c-2.92,1.82-5.48,2.74-7.67,2.74-1.64,0-2.46-.46-2.46-1.39s.63-1.93,1.91-3a20.79,20.79,0,0,1,3.15-2.49q2.05-1.38,4.25-2.76a47.59,47.59,0,0,0,4.11-2.9,35,35,0,0,0,3-2.63,8.93,8.93,0,0,0,2.46-6.08,15.14,15.14,0,0,0-2.6-8,7.94,7.94,0,0,0-7-4.14A17,17,0,0,0,813.4,226a43.77,43.77,0,0,0-8.77,6.9c-1,1-1.92,2-2.8,3.12" transform="translate(0 -83.8)" fill="none" stroke="#be7dff" stroke-linecap="round" stroke-linejoin="round" stroke-width="0"/>
      <path d="M807.92,243.27c0,1.28.54,1.92,1.64,1.92a9.45,9.45,0,0,0,3.56-1,18.78,18.78,0,0,0,4.11-2.47,18.29,18.29,0,0,0,3.29-3.29,5.67,5.67,0,0,0,1.37-3.42c0-1.82-.82-2.74-2.47-2.74a6.39,6.39,0,0,0-3.28,1.23,22.28,22.28,0,0,0-3.7,3,29,29,0,0,0-3.15,3.7A5.87,5.87,0,0,0,807.92,243.27Z" transform="translate(0 -83.8)" fill="none" stroke="#be7dff" stroke-linecap="round" stroke-linejoin="round" stroke-width="0"/>
    </g>
  </g>
</svg>
